<?xml version="1.0" encoding="UTF-8"?>
<!DOCTYPE svg PUBLIC "-//W3C//DTD SVG 1.1//EN" "http://www.w3.org/Graphics/SVG/1.1/DTD/svg11.dtd">
<!-- Creator: CorelDRAW -->
<svg xmlns="http://www.w3.org/2000/svg" xml:space="preserve" width="71mm" height="71mm" version="1.1" style="shape-rendering:geometricPrecision; text-rendering:geometricPrecision; image-rendering:optimizeQuality; fill-rule:evenodd; clip-rule:evenodd"
viewBox="0 0 7100 7100"
 xmlns:xlink="http://www.w3.org/1999/xlink"
 xmlns:xodm="http://www.corel.com/coreldraw/odm/2003">
 <defs>
  <style type="text/css">
   <![CDATA[
    .str0 {stroke:#2B2B2A;stroke-width:20;stroke-miterlimit:22.9256}
    .fil0 {fill:white}
    .fil1 {fill:#005C9D;fill-rule:nonzero}
   ]]>
  </style>
 </defs>
 <g id="Слой_x0020_1">
  <metadata id="CorelCorpID_0Corel-Layer"/>
  <rect class="fil0 str0" x="81.99" y="146.47" width="6898.68" height="6865.76" rx="2032.22" ry="2032.22"/>
  <g id="_105553122675776">
   <path class="fil1" d="M1728.01 79.29c-814.92,158.75 -1485.2,829.03 -1658.06,1654.53 -77.61,370.42 -77.61,3259.67 3.53,3644.2 165.81,814.92 818.44,1478.14 1619.25,1647.47 356.31,74.08 3344.34,74.08 3697.11,0 754.94,-158.75 1372.31,-737.31 1601.61,-1499.31 84.67,-285.75 112.89,-3270.25 31.75,-3728.86 -151.69,-889 -811.39,-1552.22 -1710.97,-1718.03 -402.17,-77.61 -3203.22,-77.61 -3584.22,0zm1428.75 1262.95c264.58,84.67 635,282.22 807.86,433.92 81.14,67.03 144.64,134.06 144.64,144.64 0,14.11 -91.72,63.5 -201.08,109.36 -289.28,127 -582.08,416.28 -737.31,726.72 -105.83,215.19 -130.53,306.92 -144.64,560.92 -45.86,691.44 275.17,1238.25 899.58,1531.06l222.25 105.83 -169.33 144.64c-201.08,172.86 -585.61,373.94 -857.25,444.5 -141.11,38.81 -405.69,52.92 -987.78,52.92l-793.75 0 -317.5 317.5c-335.14,338.67 -430.39,381 -525.64,239.89 -49.39,-70.56 -56.44,-352.78 -56.44,-2356.56 0,-1753.31 10.58,-2296.58 45.86,-2363.61 88.19,-172.86 134.06,-179.92 1347.61,-165.81 959.56,10.58 1157.11,21.17 1322.92,74.08zm1756.84 -28.22c444.5,88.19 754.94,261.06 1086.56,596.19 472.72,472.72 673.81,1005.42 638.53,1658.06 -52.92,931.33 -709.08,1735.67 -1612.2,1975.56 -232.83,63.5 -839.61,67.03 -1037.17,7.06l-137.58 -42.33 137.58 -95.25c77.61,-52.92 208.14,-169.33 296.33,-257.53 134.06,-137.58 176.39,-158.75 299.86,-158.75 194.03,0 508,-84.67 726.72,-197.56 437.44,-218.72 762,-726.72 797.28,-1238.25 31.75,-472.72 -95.25,-839.61 -412.75,-1188.86 -250.47,-271.64 -606.78,-448.03 -959.56,-472.72 -243.42,-14.11 -264.58,-24.69 -419.81,-165.81 -88.19,-81.14 -225.78,-194.03 -306.92,-246.94 -81.14,-52.92 -141.11,-105.83 -130.53,-116.42 35.28,-35.28 419.81,-105.83 592.67,-109.36 91.72,-3.53 292.81,21.17 440.97,52.92l0.02 -0.01z"/>
   <path class="fil1" d="M2983.9 1920.8c-388.06,391.58 -638.53,984.25 -638.53,1524 0,539.75 250.47,1132.42 638.53,1524 134.06,130.53 261.06,239.89 285.75,239.89 28.22,0 81.14,-24.69 127,-52.92 77.61,-56.44 74.08,-56.44 -162.28,-296.33 -402.17,-402.17 -606.78,-881.95 -606.78,-1432.28 0,-511.53 211.67,-1001.89 603.25,-1404.06 229.31,-232.83 232.83,-239.89 162.28,-289.28 -42.33,-28.22 -95.25,-52.92 -123.47,-52.92 -24.69,0 -151.69,109.36 -285.75,239.89l0 0.01z"/>
  </g>
 </g>
</svg>
