<?xml version="1.0" standalone="no"?>
<!DOCTYPE svg PUBLIC "-//W3C//DTD SVG 20010904//EN"
 "http://www.w3.org/TR/2001/REC-SVG-20010904/DTD/svg10.dtd">
<svg version="1.0" xmlns="http://www.w3.org/2000/svg"
 width="200.000000pt" height="200.000000pt" viewBox="0 0 200.000000 200.000000"
 preserveAspectRatio="xMidYMid meet">

<g transform="translate(0.000000,200.000000) scale(0.100000,-0.100000)"
fill="#005c9d" stroke="none">
<path d="M485 1984 c-231 -45 -421 -235 -470 -469 -22 -105 -22 -924 1 -1033
47 -231 232 -419 459 -467 101 -21 948 -21 1048 0 214 45 389 209 454 425 24
81 32 927 9 1057 -43 252 -230 440 -485 487 -114 22 -908 22 -1016 0z m405
-358 c75 -24 180 -80 229 -123 23 -19 41 -38 41 -41 0 -4 -26 -18 -57 -31 -82
-36 -165 -118 -209 -206 -30 -61 -37 -87 -41 -159 -13 -196 78 -351 255 -434
l63 -30 -48 -41 c-57 -49 -166 -106 -243 -126 -40 -11 -115 -15 -280 -15
l-225 0 -90 -90 c-95 -96 -122 -108 -149 -68 -14 20 -16 100 -16 668 0 497 3
651 13 670 25 49 38 51 382 47 272 -3 328 -6 375 -21z m498 8 c126 -25 214
-74 308 -169 134 -134 191 -285 181 -470 -15 -264 -201 -492 -457 -560 -66
-18 -238 -19 -294 -2 l-39 12 39 27 c22 15 59 48 84 73 38 39 50 45 85 45 55
0 144 24 206 56 124 62 216 206 226 351 9 134 -27 238 -117 337 -71 77 -172
127 -272 134 -69 4 -75 7 -119 47 -25 23 -64 55 -87 70 -23 15 -40 30 -37 33
10 10 119 30 168 31 26 1 83 -6 125 -15z"/>
<path d="M841 1462 c-110 -111 -181 -279 -181 -432 0 -153 71 -321 181 -432
38 -37 74 -68 81 -68 8 0 23 7 36 15 22 16 21 16 -46 84 -114 114 -172 250
-172 406 0 145 60 284 171 398 65 66 66 68 46 82 -12 8 -27 15 -35 15 -7 0
-43 -31 -81 -68z"/>
</g>
</svg>
